<?xml version="1.0" encoding="UTF-8" standalone="no"?>
<svg
   xmlns:dc="http://purl.org/dc/elements/1.1/"
   xmlns:cc="http://creativecommons.org/ns#"
   xmlns:rdf="http://www.w3.org/1999/02/22-rdf-syntax-ns#"
   xmlns:svg="http://www.w3.org/2000/svg"
   xmlns="http://www.w3.org/2000/svg"
   xmlns:sodipodi="http://sodipodi.sourceforge.net/DTD/sodipodi-0.dtd"
   xmlns:inkscape="http://www.inkscape.org/namespaces/inkscape"
   height="1024"
   version="1.1"
   width="1024"
   id="svg126"
   sodipodi:docname="mug.svg"
   inkscape:version="0.92.1 r15371"
   inkscape:export-filename="C:\Data\mug.png"
   inkscape:export-xdpi="96"
   inkscape:export-ydpi="96">
  <metadata
     id="metadata132">
    <rdf:RDF>
      <cc:Work
         rdf:about="">
        <dc:format>image/svg+xml</dc:format>
        <dc:type
           rdf:resource="http://purl.org/dc/dcmitype/StillImage" />
        <dc:title></dc:title>
      </cc:Work>
    </rdf:RDF>
  </metadata>
  <defs
     id="defs130" />
  <sodipodi:namedview
     pagecolor="#ffffff"
     bordercolor="#666666"
     borderopacity="1"
     objecttolerance="10"
     gridtolerance="10"
     guidetolerance="10"
     inkscape:pageopacity="0"
     inkscape:pageshadow="2"
     inkscape:window-width="640"
     inkscape:window-height="480"
     id="namedview128"
     showgrid="false"
     inkscape:zoom="0.58695387"
     inkscape:cx="462.06137"
     inkscape:cy="499.9667"
     inkscape:current-layer="strokes" />
  <g
     id="RenderLayer_LineSet"
     inkscape:groupmode="lineset"
     inkscape:label="RenderLayer_LineSet">
    <g
       inkscape:groupmode="layer"
       id="layer1"
       inkscape:label="background" />
    <g
       id="strokes"
       inkscape:groupmode="layer"
       inkscape:label="strokes">
      <path
         d=" M 634.085, 388.364 636.128, 388.939 641.731, 390.501 647.112, 391.988 652.279, 393.407 654.935, 394.131 657.234, 394.759 661.976, 396.045 666.503, 397.268 666.755, 397.336 670.805, 398.428 674.887, 399.526 677.247, 400.161 678.754, 400.567 681.899, 401.416 682.408, 401.553 683.318, 401.799 683.496, 401.846 685.849, 402.485 689.078, 403.366 692.083, 404.194 693.857, 404.691 695.374, 406.013 694.422, 415.803 693.383, 425.749 693.041, 429.022 691.744, 430.843 690.674, 432.333 686.987, 437.208 683.106, 442.090 679.588, 446.312 679.032, 446.978 677.882, 448.297 676.159, 450.271 674.766, 451.868 673.082, 453.717 670.300, 456.755 668.506, 458.636 665.640, 461.637 662.925, 464.367 660.796, 466.512 655.771, 471.377 650.567, 476.228 648.684, 477.920 645.177, 481.060 639.611, 485.871 636.296, 488.638 633.880, 490.658 632.264, 491.964 630.768, 493.173 628.042, 494.463 "
         fill="none"
         stroke="rgb(0, 0, 0)"
         stroke-linecap="butt"
         stroke-linejoin="round"
         stroke-opacity="1.0"
         stroke-width="3.0"
         id="path4" />
      <path
         d=" M 630.145, 464.832 635.270, 461.111 640.980, 456.819 643.747, 454.665 646.518, 452.507 651.879, 448.179 652.881, 447.338 657.060, 443.836 657.255, 443.666 662.045, 439.478 666.990, 434.968 668.776, 433.273 671.444, 430.740 675.857, 426.365 676.315, 425.891 "
         fill="none"
         stroke="rgb(0, 0, 0)"
         stroke-linecap="butt"
         stroke-linejoin="round"
         stroke-opacity="1.0"
         stroke-width="3.0"
         id="path6" />
      <path
         d=" M 628.042, 494.463 628.778, 484.491 628.929, 482.448 629.621, 472.472 630.076, 465.916 630.145, 464.832 631.608, 465.443 632.735, 465.911 "
         fill="none"
         stroke="rgb(0, 0, 0)"
         stroke-linecap="butt"
         stroke-linejoin="round"
         stroke-opacity="1.0"
         stroke-width="3.0"
         id="path8" />
      <path
         d=" M 676.315, 425.891 675.919, 425.850 672.067, 425.427 668.004, 424.954 663.721, 424.426 659.229, 423.845 654.528, 423.209 649.617, 422.515 646.301, 422.028 644.501, 421.762 639.178, 420.948 633.652, 420.071 632.761, 419.924 "
         fill="none"
         stroke="rgb(0, 0, 0)"
         stroke-linecap="butt"
         stroke-linejoin="round"
         stroke-opacity="1.0"
         stroke-width="3.0"
         id="path10" />
      <path
         d=" M 635.510, 419.395 632.761, 419.924 633.223, 409.935 633.413, 405.833 633.812, 395.841 633.955, 392.280 634.085, 388.364 636.767, 390.392 "
         fill="none"
         stroke="rgb(0, 0, 0)"
         stroke-linecap="butt"
         stroke-linejoin="round"
         stroke-opacity="1.0"
         stroke-width="3.0"
         id="path12" />
      <path
         d=" M 375.508, 536.119 372.342, 535.927 364.527, 535.368 356.790, 534.732 349.138, 534.018 341.579, 533.228 334.120, 532.364 333.695, 532.309 333.516, 532.273 333.197, 532.204 329.406, 526.770 324.247, 519.381 323.721, 518.617 318.076, 510.362 317.568, 509.620 315.575, 506.709 313.617, 503.801 310.649, 499.402 306.913, 493.827 301.405, 485.480 298.371, 480.880 298.277, 480.738 293.423, 473.204 289.703, 467.437 286.461, 462.316 286.302, 462.066 285.988, 461.566 "
         fill="none"
         stroke="rgb(0, 0, 0)"
         stroke-linecap="butt"
         stroke-linejoin="round"
         stroke-opacity="1.0"
         stroke-width="3.0"
         id="path22" />
      <path
         d=" M 498.268, 528.095 493.145, 530.556 490.464, 531.812 486.475, 533.684 485.139, 534.068 477.122, 536.284 473.087, 537.356 469.081, 537.846 461.014, 538.749 458.069, 539.049 452.917, 538.859 444.793, 538.477 441.608, 538.296 436.628, 537.097 428.426, 535.039 426.881, 534.636 420.145, 531.301 417.057, 529.738 413.891, 528.138 411.790, 526.432 407.131, 522.598 403.302, 519.439 402.609, 518.858 398.720, 513.936 394.570, 508.693 393.358, 507.143 391.858, 504.156 388.710, 497.852 386.459, 493.350 385.249, 489.143 384.738, 487.357 383.836, 484.190 381.922, 477.450 380.974, 469.543 379.802, 459.612 379.776, 459.387 379.477, 453.304 379.272, 448.962 379.803, 438.977 379.869, 437.743 380.416, 427.758 380.535, 425.573 381.360, 422.821 384.244, 413.246 385.661, 408.541 386.771, 404.872 389.124, 401.192 391.072, 398.149 393.162, 394.874 397.346, 388.317 397.745, 387.690 399.987, 385.837 405.549, 381.225 405.919, 380.918 411.058, 376.627 413.204, 374.829 414.611, 374.248 423.456, 370.539 426.970, 369.043 432.502, 366.682 441.299, 365.499 450.260, 364.236 454.929, 363.547 459.219, 363.723 468.158, 364.032 470.659, 364.102 473.666, 364.662 477.061, 365.295 482.841, 366.336 484.744, 366.679 485.905, 367.118 494.671, 370.382 497.140, 371.287 499.577, 372.807 503.334, 375.143 507.868, 377.945 509.429, 379.458 511.859, 381.812 516.672, 386.455 520.187, 391.832 523.328, 396.641 526.613, 405.193 527.877, 408.497 528.132, 409.884 529.829, 419.168 530.339, 421.992 "
         fill="none"
         stroke="rgb(0, 0, 0)"
         stroke-linecap="butt"
         stroke-linejoin="round"
         stroke-opacity="1.0"
         stroke-width="3.0"
         id="path24" />
      <path
         d=" M 534.850, 543.116 535.866, 540.371 538.000, 534.604 539.153, 531.465 542.366, 522.627 545.034, 515.317 547.755, 507.798 549.984, 501.568 551.723, 496.725 553.702, 491.152 556.443, 483.451 558.068, 478.835 560.945, 470.573 564.062, 461.641 565.176, 458.409 568.403, 448.944 569.701, 445.137 571.285, 440.431 573.905, 432.655 575.013, 429.324 578.129, 419.822 579.980, 414.179 582.567, 406.164 584.628, 399.694 587.614, 390.151 588.960, 385.846 591.088, 378.909 592.990, 372.617 594.542, 367.376 596.746, 359.944 598.568, 353.679 "
         fill="none"
         stroke="rgb(0, 0, 0)"
         stroke-linecap="butt"
         stroke-linejoin="round"
         stroke-opacity="1.0"
         stroke-width="3.0"
         id="path26" />
      <path
         d=" M 183.991, 426.084 185.068, 427.405 187.194, 429.869 188.846, 431.788 190.438, 433.538 192.829, 436.168 197.013, 440.542 199.036, 442.556 200.282, 443.790 201.407, 444.905 202.152, 445.609 206.007, 449.253 207.652, 450.739 210.804, 453.586 215.793, 457.902 220.972, 462.197 223.349, 464.089 "
         fill="none"
         stroke="rgb(0, 0, 0)"
         stroke-linecap="butt"
         stroke-linejoin="round"
         stroke-opacity="1.0"
         stroke-width="3.0"
         id="path32" />
      <path
         d=" M 227.456, 493.809 224.505, 492.516 223.972, 492.044 220.787, 489.109 218.724, 487.211 215.960, 484.559 213.658, 482.354 210.119, 478.815 208.781, 477.476 207.046, 475.656 206.948, 475.553 205.040, 473.551 204.111, 472.575 199.634, 467.661 197.564, 465.278 195.353, 462.736 191.269, 457.804 187.388, 452.866 183.726, 447.924 182.617, 446.342 180.265, 442.983 177.010, 438.048 173.958, 433.120 172.412, 430.445 171.549, 428.940 169.919, 419.074 169.377, 415.796 167.807, 405.819 169.545, 404.503 171.008, 403.828 172.144, 403.331 173.052, 402.936 175.318, 401.993 177.799, 400.996 180.495, 399.946 181.475, 399.573 183.408, 398.839 186.541, 397.673 187.310, 397.392 189.907, 396.445 192.446, 395.532 193.498, 395.154 193.905, 395.009 195.094, 394.587 197.310, 393.798 201.345, 392.377 205.600, 390.887 207.335, 390.284 210.089, 389.326 214.476, 387.806 "
         fill="none"
         stroke="rgb(0, 0, 0)"
         stroke-linecap="butt"
         stroke-linejoin="round"
         stroke-opacity="1.0"
         stroke-width="3.0"
         id="path34" />
      <path
         d=" M 217.829, 419.555 214.418, 420.269 209.958, 421.183 205.713, 422.036 201.684, 422.828 198.553, 423.430 197.873, 423.561 197.039, 423.718 194.278, 424.238 190.900, 424.860 190.096, 425.004 187.747, 425.427 184.813, 425.942 183.991, 426.084 "
         fill="none"
         stroke="rgb(0, 0, 0)"
         stroke-linecap="butt"
         stroke-linejoin="round"
         stroke-opacity="1.0"
         stroke-width="3.0"
         id="path36" />
      <path
         d=" M 268.546, 434.804 271.950, 429.424 272.970, 427.823 278.309, 419.549 278.951, 418.556 280.560, 416.094 280.599, 416.037 283.184, 412.383 284.949, 409.887 289.832, 403.047 291.340, 400.945 295.390, 395.343 297.975, 391.768 298.974, 390.397 304.852, 382.353 307.975, 378.103 310.163, 375.137 311.953, 372.702 316.798, 366.153 319.318, 362.751 327.464, 363.378 335.778, 363.956 344.201, 364.478 352.723, 364.943 361.337, 365.352 365.049, 365.501 "
         fill="none"
         stroke="rgb(0, 0, 0)"
         stroke-linecap="butt"
         stroke-linejoin="round"
         stroke-opacity="1.0"
         stroke-width="3.0"
         id="path38" />
      <path
         d=" M 286.461, 462.316 284.087, 464.920 278.242, 471.390 276.853, 472.942 273.780, 476.381 272.686, 477.609 273.737, 487.554 274.331, 493.180 275.427, 503.120 276.273, 510.798 277.411, 520.733 277.504, 521.545 277.627, 522.628 274.956, 522.111 270.889, 521.154 264.742, 519.611 258.765, 518.011 252.961, 516.357 249.122, 515.192 247.884, 505.856 246.619, 495.936 245.665, 488.453 244.450, 478.527 243.610, 471.669 242.447, 461.737 241.717, 455.503 240.610, 445.564 239.985, 439.947 238.937, 430.002 238.409, 424.996 237.423, 415.045 236.986, 410.639 236.065, 400.681 235.711, 396.863 234.865, 386.899 234.646, 384.318 234.532, 382.923 233.759, 372.953 233.606, 370.985 232.900, 361.010 232.745, 358.817 232.393, 353.368 233.269, 351.451 "
         fill="none"
         stroke="rgb(0, 0, 0)"
         stroke-linecap="butt"
         stroke-linejoin="round"
         stroke-opacity="1.0"
         stroke-width="3.0"
         id="path40" />
      <path
         d=" M 306.651, 439.142 310.407, 444.826 313.380, 449.258 318.980, 457.543 319.201, 457.870 324.858, 466.116 324.934, 466.227 326.734, 468.835 328.023, 470.702 331.886, 476.218 336.855, 483.318 342.299, 490.946 345.691, 495.703 350.327, 502.116 352.886, 505.637 354.503, 507.866 360.426, 515.923 363.278, 519.802 369.092, 527.581 372.011, 531.495 375.508, 536.119 372.498, 535.835 "
         fill="none"
         stroke="rgb(0, 0, 0)"
         stroke-linecap="butt"
         stroke-linejoin="round"
         stroke-opacity="1.0"
         stroke-width="3.0"
         id="path42" />
      <path
         d=" M 361.649, 367.356 365.049, 365.501 364.197, 366.572 362.158, 369.135 361.567, 369.874 357.728, 374.697 353.552, 379.923 353.323, 380.211 348.894, 385.768 345.716, 389.744 342.903, 393.272 340.094, 396.800 338.067, 399.339 332.459, 406.386 330.612, 408.710 327.014, 413.252 323.362, 417.855 321.762, 419.881 316.328, 426.774 310.867, 433.733 309.502, 435.477 306.651, 439.142 303.922, 439.643 "
         fill="none"
         stroke="rgb(0, 0, 0)"
         stroke-linecap="butt"
         stroke-linejoin="round"
         stroke-opacity="1.0"
         stroke-width="3.0"
         id="path44" />
      <path
         d=" M 492.877, 425.163 492.038, 421.560 489.757, 411.823 489.500, 410.726 487.130, 407.448 485.942, 405.804 482.495, 401.026 477.233, 398.528 471.375, 395.712 468.444, 395.476 459.616, 394.699 455.645, 394.322 450.680, 394.915 446.470, 395.388 441.934, 396.917 438.569, 398.026 435.721, 399.850 433.171, 401.480 431.952, 402.251 426.634, 408.063 426.186, 408.896 424.615, 411.806 422.597, 415.533 421.752, 418.327 420.236, 423.325 419.809, 424.732 418.412, 434.634 418.273, 435.621 418.209, 438.342 417.983, 448.158 418.180, 453.969 418.425, 461.071 419.147, 470.216 419.437, 473.846 421.328, 483.666 421.519, 484.662 422.372, 487.089 424.657, 493.570 427.234, 497.911 428.844, 500.608 432.796, 504.546 434.173, 505.914 435.835, 506.863 440.732, 509.609 444.229, 510.562 448.532, 511.694 452.535, 511.914 457.561, 512.142 460.793, 511.641 469.021, 510.285 472.720, 509.640 474.952, 508.404 477.230, 507.142 483.392, 503.664 485.455, 500.716 490.026, 494.113 492.233, 484.359 492.318, 483.986 493.031, 480.810 "
         fill="none"
         stroke="rgb(0, 0, 0)"
         stroke-linecap="butt"
         stroke-linejoin="round"
         stroke-opacity="1.0"
         stroke-width="3.0"
         id="path46" />
      <path
         d=" M 529.754, 421.666 530.339, 421.992 527.835, 422.256 519.615, 423.051 511.304, 423.784 502.908, 424.456 494.204, 425.078 492.877, 425.163 494.483, 424.642 "
         fill="none"
         stroke="rgb(0, 0, 0)"
         stroke-linecap="butt"
         stroke-linejoin="round"
         stroke-opacity="1.0"
         stroke-width="3.0"
         id="path48" />
      <path
         d=" M 494.611, 482.756 494.287, 482.359 493.031, 480.810 493.866, 480.749 502.063, 480.078 510.188, 479.336 518.233, 478.525 526.190, 477.646 529.710, 477.223 "
         fill="none"
         stroke="rgb(0, 0, 0)"
         stroke-linecap="butt"
         stroke-linejoin="round"
         stroke-opacity="1.0"
         stroke-width="3.0"
         id="path50" />
      <path
         d=" M 600.897, 355.319 600.554, 355.078 598.568, 353.679 599.281, 353.569 606.324, 352.417 613.191, 351.227 619.793, 350.016 620.863, 349.810 621.136, 351.788 620.828, 352.883 619.431, 357.856 616.673, 367.468 615.815, 370.457 613.527, 378.255 611.926, 383.623 609.667, 391.035 607.722, 397.410 605.167, 405.620 603.885, 409.682 603.201, 411.845 600.812, 419.277 598.347, 426.945 596.609, 432.265 595.572, 435.394 593.763, 440.856 593.143, 442.728 591.104, 448.791 587.939, 458.221 587.601, 459.215 584.343, 468.670 582.910, 472.830 581.681, 476.403 580.643, 479.377 579.211, 483.496 577.239, 489.093 575.401, 494.307 573.264, 500.306 570.491, 508.117 568.759, 512.934 565.632, 521.546 562.231, 530.950 561.818, 532.092 559.282, 538.975 558.909, 539.048 "
         fill="none"
         stroke="rgb(0, 0, 0)"
         stroke-linecap="butt"
         stroke-linejoin="round"
         stroke-opacity="1.0"
         stroke-width="3.0"
         id="path52" />
      <path
         d=" M 558.909, 539.048 553.066, 540.133 545.877, 541.380 538.576, 542.558 534.850, 543.116 537.441, 542.689 "
         fill="none"
         stroke="rgb(0, 0, 0)"
         stroke-linecap="butt"
         stroke-linejoin="round"
         stroke-opacity="1.0"
         stroke-width="3.0"
         id="path54" />
      <path
         d=" M 262.710, 356.438 262.779, 356.547 263.068, 361.775 263.679, 371.756 263.823, 374.117 264.218, 379.976 264.684, 386.960 265.415, 396.934 265.666, 400.358 266.456, 410.327 266.773, 414.327 267.620, 424.291 268.010, 428.883 268.546, 434.804 "
         fill="none"
         stroke="rgb(0, 0, 0)"
         stroke-linecap="butt"
         stroke-linejoin="round"
         stroke-opacity="1.0"
         stroke-width="3.0"
         id="path56" />
      <path
         d=" M 529.148, 479.367 529.710, 477.223 528.877, 482.093 527.507, 489.966 525.581, 495.183 523.845, 499.842 523.245, 501.444 "
         fill="none"
         stroke="rgb(0, 0, 0)"
         stroke-linecap="butt"
         stroke-linejoin="round"
         stroke-opacity="1.0"
         stroke-width="3.0"
         id="path58" />
      <path
         d=" M 517.243, 511.159 516.917, 511.680 "
         fill="none"
         stroke="rgb(0, 0, 0)"
         stroke-linecap="butt"
         stroke-linejoin="round"
         stroke-opacity="1.0"
         stroke-width="3.0"
         id="path60" />
      <g
         id="g4574">
        <path
           sodipodi:nodetypes="ccccccccccccccccccccccccccccccccccccccccccccccccccccccccccccccccccccccccccccccccccccccccccccccccccccccccccccccccccccccccccccccccccccccccccccccccccccccccccccccccccccccccccccccccccccccccccccccccccccccccccccccccccccccccccccccccccccccccccccccccccccccccccccccccccccccccccccccccccccccccccccccccccccccccccccccccccccccccccccccccccccccccccccccccccccccccccccccccccccccccccccccccccccccccccccccccccccccccccccccccccccccccccccccccccccccccccccccccccccccccccccccccccccccccccccccccccccccccccccc"
           style="fill:none;stroke:#000000;stroke-width:6;stroke-linecap:butt;stroke-linejoin:round;stroke-opacity:1;stroke-miterlimit:4;stroke-dasharray:none"
           inkscape:connector-curvature="0"
           id="path2"
           d="m 727.617,277.652 0.261,-5.433 0.002,-0.058 0.278,-5.794 0.139,-2.442 0.051,-0.89 0.347,-6.105 0.539,-8.474 0.553,-8.367 0.553,-8.344 0.539,-8.402 0.508,-8.438 0.458,-8.447 0.392,-8.431 0.307,-8.389 0.23,-8.233 0.158,-7.958 0.094,-7.566 0.037,-7.053 -0.014,-6.419 -0.058,-5.661 -0.094,-4.782 -0.122,-3.78 -0.182,-2.893 -0.27,-2.125 -0.389,-1.477 -0.536,-0.95 -0.715,-0.545 -0.085,-0.051 -0.928,-0.264 -0.279,-0.053 -0.47,-0.053 -1.178,-0.104 -0.669,-0.054 -0.866,-0.054 -1.066,-0.055 -1.461,-0.066 -1.271,-0.055 -1.476,-0.055 -1.684,-0.055 -1.893,-0.055 -2.106,-0.055 -2.319,-0.055 -2.535,-0.055 -2.753,-0.055 -2.971,-0.055 -3.193,-0.055 -3.415,-0.054 -3.637,-0.055 -3.861,-0.053 -4.083,-0.054 -4.306,-0.053 -4.529,-0.052 -4.75,-0.052 -4.972,-0.051 -5.192,-0.051 -5.41,-0.05 -5.626,-0.049 -5.839,-0.048 -6.049,-0.047 -6.257,-0.046 -6.46,-0.045 -6.66,-0.045 -6.855,-0.042 -7.046,-0.042 -7.231,-0.04 -7.41,-0.039 -7.583,-0.038 -7.751,-0.036 -7.909,-0.034 -8.063,-0.033 -8.209,-0.032 -8.345,-0.029 -8.475,-0.028 -8.595,-0.026 -8.706,-0.025 -8.808,-0.022 -8.9,-0.021 -8.984,-0.018 -9.055,-0.017 -9.119,-0.015 -9.171,-0.012 -9.212,-0.011 -9.242,-0.008 -9.263,-0.007 -9.272,-0.004 -9.27,-0.003 h -9.257 l -9.234,0.002 -9.199,0.004 -9.153,0.006 -9.098,0.008 -9.031,0.01 -8.954,0.013 -8.867,0.014 -8.769,0.016 -8.662,0.018 -8.547,0.02 -8.42,0.023 -8.286,0.023 -8.143,0.026 -7.992,0.028 -7.832,0.029 -7.665,0.031 -7.492,0.033 -7.31,0.034 -7.124,0.035 -6.931,0.038 -6.733,0.038 -6.53,0.04 -6.321,0.042 -6.109,0.042 -5.892,0.044 -5.673,0.045 -5.451,0.046 -5.225,0.047 -4.999,0.048 -4.77,0.049 -4.538,0.049 -4.308,0.051 -4.074,0.051 -3.842,0.052 -3.609,0.052 -3.378,0.053 -3.146,0.053 -2.916,0.054 -2.686,0.054 -2.457,0.054 -2.23,0.055 -2.007,0.055 -1.784,0.055 -1.565,0.055 -1.348,0.055 -1.553,0.067 -1.131,0.055 -0.917,0.055 -0.706,0.055 -1.251,0.106 -0.494,0.055 -0.291,0.054 -0.977,0.272 -0.085,0.052 -0.739,0.563 -0.532,0.98 -0.352,1.525 -0.198,2.195 -0.071,2.987 0.028,3.903 0.102,4.939 0.178,5.847 0.257,6.629 0.337,7.283 0.42,7.812 0.506,8.216 0.592,8.499 0.683,8.658 0.773,8.701 0.852,8.743 0.915,8.787 0.965,8.831 1.001,8.876 1.141,9.935 0.915,7.959 1.028,9.02 1.104,9.939 0.924,8.318 1.054,9.363 1.116,9.603 1.202,9.903 1.27,9.919 0.043,0.34 1.346,9.909 0.104,0.764 1.429,9.897 0.18,1.243 0.19,1.25 1.52,9.884 0.283,1.837 1.606,9.87 0.389,2.392 1.686,9.857 0.508,2.968 1.762,9.843 0.638,3.562 1.835,9.83 0.778,4.171 1.903,9.817 0.93,4.796 1.967,9.804 1.089,5.432 2.027,9.792 1.258,6.079 2.084,9.781 1.434,6.734 2.134,9.77 1.553,7.111 2.179,9.76 1.613,7.223 2.224,9.749 1.615,7.08 2.269,9.739 1.56,6.695 2.316,9.728 1.447,6.077 2.368,9.716 1.277,5.24 2.43,9.7 1.049,4.191 0.57,2.243 2.504,9.682 0.769,2.973 2.588,9.659 0.535,1.995 2.684,9.633 0.357,1.284 2.781,9.606 0.241,0.833 2.875,9.578 0.188,0.628 2.959,9.552 0.205,0.663 3.028,9.53 0.294,0.926 0.772,2.404 3.079,9.514 0.461,1.422 3.112,9.504 0.693,2.117 3.161,9.487 0.848,2.544 3.228,9.464 0.925,2.712 3.317,9.434 0.925,2.631 3.43,9.394 0.846,2.316 0.926,2.442 3.577,9.338 0.679,1.773 3.772,9.261 0.417,1.023 1.052,2.42 4.069,9.221 1.174,2.397 3.9,7.932 1.29,2.367 3.742,6.784 1.402,2.33 3.594,5.774 1.507,2.288 3.455,4.897 1.607,2.243 1.725,2.223 3.303,4.122 1.817,2.172 1.933,2.15 3.15,3.474 2.017,2.093 3.031,2.986 2.096,2.035 2.205,2.007 2.884,2.595 2.275,1.946 2.777,2.363 2.339,1.883 2.441,1.85 2.539,1.815 2.639,1.779 2.802,1.852 2.718,1.689 2.811,1.652 2.887,1.62 2.943,1.595 3.012,1.559 3.097,1.514 3.196,1.457 3.308,1.389 3.404,1.329 3.483,1.279 3.545,1.237 3.591,1.205 3.645,1.159 2.331,0.753 3.535,1.139 3.637,1.038 3.785,0.889 3.889,0.787 3.949,0.728 3.966,0.717 3.943,0.751 3.947,0.737 3.979,0.673 4.038,0.561 4.121,0.399 4.179,0.285 4.214,0.221 4.223,0.208 4.213,0.242 4.21,0.227 4.213,0.161 4.222,0.046 4.235,-0.122 4.243,-0.237 4.248,-0.303 4.25,-0.319 4.253,-0.283 4.241,-0.297 4.216,-0.36 4.174,-0.473 4.115,-0.633 4.074,-0.745 4.049,-0.807 4.045,-0.822 4.059,-0.788 4.042,-0.799 3.989,-0.855 3.9,-0.957 3.776,-1.101 3.688,-1.202 3.639,-1.256 3.627,-1.269 3.655,-1.237 3.633,-1.244 3.557,-1.291 3.43,-1.374 5.686,-2.589 3.298,-1.566 3.22,-1.61 3.154,-1.644 3.101,-1.667 3.03,-1.698 2.94,-1.733 2.834,-1.777 2.709,-1.825 2.599,-1.865 5.237,-3.908 2.496,-1.948 2.396,-1.975 2.298,-2.001 2.197,-2.025 2.599,-2.529 2.129,-2.079 2.691,-2.762 2.056,-2.133 1.949,-2.152 2.813,-3.152 1.869,-2.201 2.906,-3.637 1.784,-2.248 1.671,-2.261 3.024,-4.277 1.578,-2.303 1.464,-2.312 3.136,-5.042 1.363,-2.347 3.232,-5.904 1.258,-2.377 3.33,-6.897 1.148,-2.401 3.432,-8.021 1.033,-2.419 3.538,-9.281 0.914,-2.429 3.306,-9.437 0.31,-0.885 1.488,-4.522 2.5925,-7.851 3.4455,-10.762 0.717,-2.255 0.83,-2.675 4.1695,-13.2475 4.3525,-13.2295 0.201,-0.607 1.373,-4.046 3.9115,-10.901 4.7255,-11.576 2.9675,-4.9955 6.6345,-8.6415 4.838,-4.783 4.879,-3.621 4.916,-2.706 4.954,-1.95 4.995,-1.358 5.037,-0.928 5.081,-0.66 5.197,-0.504 5.384,-0.457 5.644,-0.518 5.978,-0.69 6.388,-0.972 6.872,-1.365 7.435,-1.868 8.077,-2.483 8.609,-3.168 9.03,-3.923 8.915,-4.532 0.429,-0.218 8.606,-5.094 0.944,-0.558 8.241,-5.664 1.406,-0.966 7.818,-6.235 1.82,-1.452 7.334,-6.799 2.189,-2.029 6.79,-7.341 2.509,-2.713 6.307,-7.76 2.721,-3.348 5.877,-8.091 2.83,-3.896 5.49,-8.358 2.842,-4.327 5.136,-8.581 2.765,-4.62 4.805,-8.77 2.605,-4.757 4.486,-8.937 2.369,-4.72 4.171,-9.088 2.064,-4.498 3.847,-9.23 1.699,-4.077 3.523,-9.359 1.359,-3.612 3.194,-9.476 1.044,-3.099 2.862,-9.582 0.758,-2.538 2.522,-9.677 0.503,-1.927 2.173,-9.761 0.282,-1.265 1.81,-9.835 0.101,-0.549 1.394,-9.679 1.1155,-13.052 0.1855,-8.568 -0.021,-3.381 -0.02,-1.441 -0.53,-7.554 -0.981,-7.379 -1.421,-7.359 -1.849,-7.495 -2.265,-7.789 -2.671,-8.247 -3.275,-8.472 -4.077,-8.462 -5.079,-8.212 -6.282,-7.719 -1.029,-0.963 -7.411,-6.714 -0.262,-0.237 -8.407,-5.414 -0.858,-0.552 -9.193,-3.936 -1.859,-0.797 -9.703,-2.419 -3.325,-0.83 -9.908,-1.354 -4.531,-0.619 -9.982,-0.595 -5.301,-0.315 -10,-0.039 -5.561,-0.021 -9.993,0.375 -5.282,0.199 -9.976,0.686 -4.45,0.306 -0.933,0.068 -9.959,0.905 -2.969,0.269 -9.945,1.052 -1.037,0.109 -8.488,0.935 -6.307,0.604 -4.055,0.152" />
        <path
           sodipodi:nodetypes="ccccccccccccccccccccccccccccccccccccccccccccccccccccccccccccccccccccccccccccccccccccccccccccccccccccccccccccccccccc"
           style="fill:none;stroke:#000000;stroke-width:6;stroke-linecap:butt;stroke-linejoin:round;stroke-opacity:1;stroke-miterlimit:4;stroke-dasharray:none;fill-opacity:1"
           inkscape:connector-curvature="0"
           id="path74"
           d="m 854.965,338.732 3.255,5.176 2.925,6.041 2.295,5.939 1.823,5.611 1.513,5.059 1.192,4.67 0.86,4.443 0.519,4.378 0.167,4.47 -0.197,4.72 -0.9155,7.0355 -1.7525,8.9735 -1.756,7.125 -2.191,7.759 -2.64,8.358 -3.107,8.923 -3.551,9.348 -0.04,0.105 -3.801,9.249 -0.287,0.7 -4.043,9.147 -0.559,1.264 -4.276,9.04 -0.852,1.8 -4.5,8.931 -1.068,2.121 -4.724,8.814 -1.198,2.236 -4.96,8.684 -1.233,2.159 -5.218,8.53 -1.165,1.904 -5.513,8.342 -0.982,1.486 -5.86,8.102 -0.671,0.927 -6.284,7.78 -0.212,0.263 -6.389,6.867 -6.285,5.8 -6.181,4.835 -6.079,3.97 -5.976,3.203 -5.872,2.532 -5.766,1.956 -5.658,1.473 -5.546,1.083 -5.415,0.744 -5.268,0.457 -5.101,0.22 -4.914,0.035 -4.708,-0.1 -4.482,-0.184 -4.236,-0.216 -3.968,-0.199 -3.5092,-0.49199 -2.7758,-0.78401 -3.7895,-2.4695 c -1.76164,-2.59663 -2.44872,-4.49305 -3.187,-6.3655 l -0.5355,-3.357 -0.29,-6.004 0.374,-6.856 1.11,-9.743 1.449,-9.894 0.403,-2.75 1.591,-9.872 1.738,-10.5195 1.749,-10.3105 1.683,-9.857 1.168,-6.836 1.674,-9.859 1.133,-6.674 1.643,-9.864 1.045,-6.274 1.586,-9.873 0.904,-5.625 1.531,-9.882 0.773,-4.993 1.476,-9.891 0.654,-4.38 1.423,-9.898 0.545,-3.79 1.374,-9.905 0.447,-3.22 1.335,-9.911 0.503,-3.731 1.302,-9.915 0.289,-2.199 1.271,-9.919 0.373,-2.914 0.781,-6.844 1.34,-2.562 2.42,-1.547 3.61,-1.211 5.037,-1.098 6.741,-1.239 8.728,-1.633 9.849,-1.734 0.427,-0.075 9.881,-1.536 1.501,-0.233 9.922,-1.244 2.121,-0.266 9.964,-0.838 2.291,-0.193 9.996,-0.277 2.02,-0.056 10.4875,0.539 9.6185,1.56 8.507,3.031 7.07,4.119 5.79,4.963 4.29,5.112 0.381,0.454" />
      </g>
      <path
         d=" M 233.269, 351.451 239.046, 352.553 245.464, 353.700 252.074, 354.808 258.872, 355.875 262.710, 356.438 262.576, 356.570 260.097, 358.102 "
         fill="none"
         stroke="rgb(0, 0, 0)"
         stroke-linecap="butt"
         stroke-linejoin="round"
         stroke-opacity="1.0"
         stroke-width="3.0"
         id="path86" />
      <path
         d=" M 211.803, 389.833 214.476, 387.806 214.878, 391.993 215.906, 401.940 216.277, 405.530 217.377, 415.470 217.829, 419.555 214.928, 419.028 "
         fill="none"
         stroke="rgb(0, 0, 0)"
         stroke-linecap="butt"
         stroke-linejoin="round"
         stroke-opacity="1.0"
         stroke-width="3.0"
         id="path88" />
      <path
         d=" M 220.694, 465.172 223.349, 464.089 223.539, 465.544 224.889, 475.452 225.790, 482.060 226.501, 487.091 227.456, 493.809 "
         fill="none"
         stroke="rgb(0, 0, 0)"
         stroke-linecap="butt"
         stroke-linejoin="round"
         stroke-opacity="1.0"
         stroke-width="3.0"
         id="path90" />
      <path
         d=" M 678.914, 426.720 676.315, 425.891 679.051, 425.192 "
         fill="none"
         stroke="rgb(0, 0, 0)"
         stroke-linecap="butt"
         stroke-linejoin="round"
         stroke-opacity="1.0"
         stroke-width="3.0"
         id="path92" />
      <path
         d=" M 630.768, 493.173 630.842, 492.193 630.852, 492.066 631.545, 482.820 632.247, 472.845 632.735, 465.911 636.919, 462.876 641.048, 459.775 642.665, 458.561 645.805, 456.119 648.237, 454.225 653.630, 449.872 658.840, 445.506 660.358, 444.182 662.175, 442.599 663.858, 441.126 668.793, 436.625 670.167, 435.320 673.304, 432.339 675.799, 429.865 677.738, 427.941 678.914, 426.720 679.051, 425.192 678.081, 425.095 674.209, 424.682 672.981, 424.543 670.117, 424.217 665.810, 423.700 661.290, 423.129 657.094, 422.573 656.558, 422.502 653.691, 422.106 651.616, 421.818 646.464, 421.073 641.103, 420.268 637.360, 419.684 635.510, 419.395 635.982, 409.406 636.136, 406.167 636.545, 396.176 636.691, 392.605 636.767, 390.392 637.843, 390.689 641.476, 391.682 643.475, 392.229 648.886, 393.695 650.584, 394.152 654.082, 395.092 657.228, 395.932 659.065, 396.422 663.831, 397.687 667.833, 398.743 668.378, 398.887 670.242, 399.377 672.694, 400.022 676.793, 401.098 680.209, 401.994 680.676, 402.117 681.782, 402.407 683.100, 402.754 683.203, 402.781 684.343, 403.079 687.795, 403.988 689.902, 404.546 691.027, 404.845 693.771, 405.579 694.036, 405.650 695.374, 406.013 "
         fill="none"
         stroke="rgb(0, 0, 0)"
         stroke-linecap="butt"
         stroke-linejoin="round"
         stroke-opacity="1.0"
         stroke-width="3.0"
         id="path94" />
      <path
         d=" M 508.370, 520.807 501.779, 525.580 501.171, 526.014 498.231, 528.107 493.690, 530.275 486.534, 533.609 485.598, 533.877 477.494, 536.104 473.215, 537.234 469.367, 537.703 461.213, 538.612 458.240, 538.914 453.029, 538.724 444.817, 538.344 441.836, 538.177 436.564, 536.917 428.272, 534.855 427.226, 534.584 425.133, 533.557 419.898, 530.985 417.249, 529.654 414.364, 528.207 411.441, 525.853 408.668, 523.588 403.185, 519.096 402.855, 518.687 398.825, 513.622 395.190, 509.063 394.001, 507.571 392.765, 505.124 392.035, 503.672 387.542, 494.738 387.148, 493.953 385.255, 487.417 384.376, 484.356 382.624, 478.222 381.690, 470.451 380.514, 460.521 380.482, 460.252 380.186, 454.183 379.986, 449.902 380.527, 439.917 380.598, 438.595 381.156, 428.611 381.265, 426.661 382.183, 423.641 383.623, 418.904 386.536, 409.334 387.492, 406.200 388.747, 404.257 390.102, 402.159 392.940, 397.761 394.308, 395.639 397.041, 391.395 398.406, 389.274 405.668, 383.312 406.657, 382.495 413.724, 376.642 414.433, 376.351 422.091, 373.169 423.363, 372.640 430.283, 369.719 432.331, 368.853 432.857, 368.627 441.376, 367.490 450.423, 366.222 455.184, 365.524 459.468, 365.696 468.492, 366.000 470.831, 366.064 477.479, 367.288 484.827, 368.594 486.406, 369.185 495.251, 372.441 497.107, 373.115 499.469, 374.573 502.701, 376.564 503.991, 377.358 507.721, 379.639 511.784, 383.539 512.584, 384.306 516.427, 387.978 519.571, 392.744 520.969, 394.865 523.018, 397.972 526.125, 405.992 527.531, 409.636 528.873, 416.868 529.299, 419.178 529.602, 420.832 529.754, 421.666 528.751, 421.772 520.448, 422.575 512.052, 423.316 503.569, 423.995 495.010, 424.609 494.483, 424.642 493.925, 422.258 491.633, 412.525 491.255, 410.921 489.214, 408.117 486.428, 404.291 483.872, 400.772 477.629, 397.833 472.127, 395.209 468.749, 394.939 459.827, 394.160 455.829, 393.783 450.884, 394.372 446.255, 394.890 444.050, 395.630 441.957, 396.330 437.963, 397.636 433.095, 400.728 430.986, 402.052 425.395, 408.115 424.550, 409.672 424.376, 409.993 421.191, 415.831 418.660, 424.119 418.316, 425.246 417.356, 432.011 416.746, 436.308 416.672, 439.436 416.454, 448.961 416.656, 454.815 416.906, 461.951 417.660, 471.408 417.937, 474.835 419.846, 484.651 420.071, 485.806 420.846, 487.993 423.306, 494.906 427.197, 501.402 427.669, 502.186 431.015, 505.492 433.279, 507.721 435.836, 509.167 438.185, 510.474 440.199, 511.593 444.300, 512.699 448.380, 513.761 452.681, 513.993 457.785, 514.220 461.014, 513.722 469.083, 512.399 469.997, 512.242 473.472, 511.638 475.512, 510.516 477.601, 509.367 484.727, 505.373 485.901, 503.713 491.625, 495.514 491.731, 495.362 492.973, 489.938 493.984, 485.521 494.382, 483.768 494.611, 482.756 502.665, 482.093 510.862, 481.340 518.978, 480.517 527.005, 479.626 529.148, 479.367 528.515, 483.039 527.179, 490.673 526.556, 492.349 523.828, 499.619 523.414, 500.720 522.981, 501.871 522.969, 501.903 522.968, 501.905 522.951, 501.951 "
         fill="none"
         stroke="rgb(0, 0, 0)"
         stroke-linecap="butt"
         stroke-linejoin="round"
         stroke-opacity="1.0"
         stroke-width="3.0"
         id="path96" />
      <path
         d=" M 559.282, 538.975 558.910, 539.045 554.223, 539.916 546.961, 541.176 539.588, 542.367 537.441, 542.689 539.924, 536.036 543.369, 526.648 543.944, 525.081 545.992, 519.516 547.283, 516.010 548.596, 512.412 549.678, 509.414 553.078, 500.010 554.030, 497.378 555.424, 493.484 557.354, 488.109 558.497, 484.889 560.427, 479.450 563.744, 470.016 565.262, 465.695 566.168, 463.120 569.421, 453.663 572.164, 445.692 573.224, 442.567 574.975, 437.412 577.514, 429.845 579.773, 423.015 582.530, 414.677 583.732, 410.982 586.791, 401.461 587.208, 400.164 588.940, 394.676 591.582, 386.296 592.356, 383.792 595.272, 374.227 595.634, 373.040 596.875, 368.884 598.312, 364.071 599.424, 360.350 600.897, 355.319 607.872, 354.170 614.790, 352.961 620.276, 351.947 621.136, 351.788 "
         fill="none"
         stroke="rgb(0, 0, 0)"
         stroke-linecap="butt"
         stroke-linejoin="round"
         stroke-opacity="1.0"
         stroke-width="3.0"
         id="path98" />
      <path
         d=" M 167.807, 405.819 168.985, 405.290 169.625, 405.018 171.022, 404.423 171.041, 404.415 173.290, 403.503 175.775, 402.530 177.924, 401.713 178.477, 401.503 181.399, 400.418 184.542, 399.276 186.930, 398.422 187.913, 398.072 191.519, 396.803 192.594, 396.428 193.503, 396.112 194.056, 395.919 195.349, 395.469 198.703, 394.311 199.403, 394.069 203.682, 392.601 207.510, 391.294 208.186, 391.063 211.803, 389.833 212.043, 392.314 213.082, 402.260 213.457, 405.859 214.567, 415.797 214.928, 419.028 212.205, 419.589 210.379, 419.958 207.714, 420.495 205.845, 420.865 203.442, 421.339 199.389, 422.122 198.372, 422.314 196.858, 422.600 196.129, 422.738 195.557, 422.846 194.287, 423.079 191.944, 423.513 188.549, 424.125 185.375, 424.683 184.167, 424.890 182.429, 425.188 181.180, 425.397 "
         fill="none"
         stroke="rgb(0, 0, 0)"
         stroke-linecap="butt"
         stroke-linejoin="round"
         stroke-opacity="1.0"
         stroke-width="3.0"
         id="path100" />
      <path
         d=" M 267.448, 436.935 271.698, 430.288 277.159, 421.911 277.491, 421.400 279.984, 417.621 282.383, 414.260 283.661, 412.470 289.510, 404.359 289.866, 403.866 290.095, 403.549 291.101, 402.172 296.785, 394.388 299.140, 391.186 303.711, 384.992 308.254, 378.868 309.691, 376.939 310.866, 375.357 316.851, 367.346 317.754, 366.138 318.242, 365.484 318.818, 364.717 326.459, 365.310 334.849, 365.897 343.350, 366.427 351.952, 366.900 360.646, 367.316 361.649, 367.356 360.444, 368.858 356.119, 374.250 352.413, 378.854 350.534, 381.191 347.222, 385.316 344.682, 388.471 340.318, 393.902 338.360, 396.343 336.945, 398.102 333.026, 402.990 329.798, 407.016 329.405, 407.507 325.184, 412.796 322.080, 416.680 320.852, 418.223 319.040, 420.499 314.965, 425.630 308.763, 433.474 308.076, 434.344 308.063, 434.360 303.922, 439.643 305.136, 441.466 309.376, 447.839 310.770, 449.903 314.018, 454.675 318.246, 460.885 322.413, 466.916 325.171, 470.881 327.143, 473.719 332.906, 481.891 334.814, 484.596 336.049, 486.337 341.887, 494.456 342.728, 495.627 344.955, 498.726 348.001, 502.908 349.684, 505.205 352.483, 509.030 353.841, 510.888 359.795, 518.922 362.412, 522.453 368.427, 530.442 369.916, 532.420 371.492, 534.516 372.498, 535.835 371.586, 535.780 363.689, 535.215 355.870, 534.572 348.138, 533.850 340.501, 533.052 333.659, 532.258 333.197, 532.204 "
         fill="none"
         stroke="rgb(0, 0, 0)"
         stroke-linecap="butt"
         stroke-linejoin="round"
         stroke-opacity="1.0"
         stroke-width="3.0"
         id="path102" />
      <path
         d=" M 518.077, 509.784 520.201, 506.371 520.967, 505.139 522.951, 501.951 522.970, 501.901 522.971, 501.899 522.985, 501.864 523.484, 500.600 "
         fill="none"
         stroke="rgb(0, 0, 0)"
         stroke-linecap="butt"
         stroke-linejoin="round"
         stroke-opacity="1.0"
         stroke-width="3.0"
         id="path104" />
      <path
         d=" M 522.951, 501.951 523.144, 501.620 523.245, 501.444 "
         fill="none"
         stroke="rgb(0, 0, 0)"
         stroke-linecap="butt"
         stroke-linejoin="round"
         stroke-opacity="1.0"
         stroke-width="3.0"
         id="path106" />
      <path
         d=" M 517.243, 511.159 520.967, 505.139 "
         fill="none"
         stroke="rgb(0, 0, 0)"
         stroke-linecap="butt"
         stroke-linejoin="round"
         stroke-opacity="1.0"
         stroke-width="3.0"
         id="path108" />
      <path
         d=" M 508.505, 520.667 508.370, 520.807 508.502, 520.669 508.726, 520.434 509.634, 519.484 510.697, 518.359 515.277, 513.489 516.690, 511.989 516.917, 511.680 "
         fill="none"
         stroke="rgb(0, 0, 0)"
         stroke-linecap="butt"
         stroke-linejoin="round"
         stroke-opacity="1.0"
         stroke-width="3.0"
         id="path110" />
      <path
         d=" M 518.077, 509.784 516.816, 511.788 516.690, 511.989 "
         fill="none"
         stroke="rgb(0, 0, 0)"
         stroke-linecap="butt"
         stroke-linejoin="round"
         stroke-opacity="1.0"
         stroke-width="3.0"
         id="path112" />
      <path
         d=" M 498.268, 528.095 501.779, 525.580 "
         fill="none"
         stroke="rgb(0, 0, 0)"
         stroke-linecap="butt"
         stroke-linejoin="round"
         stroke-opacity="1.0"
         stroke-width="3.0"
         id="path114" />
      <path
         d=" M 232.393, 353.368 233.405, 353.563 237.297, 354.310 243.762, 355.476 250.423, 356.602 257.274, 357.685 260.097, 358.102 260.329, 362.230 260.947, 372.211 261.094, 374.585 261.771, 384.562 261.967, 387.442 262.706, 397.415 262.961, 400.854 263.761, 410.822 264.083, 414.838 264.940, 424.801 265.336, 429.409 265.951, 436.143 267.448, 436.935 268.546, 434.804 265.951, 436.143 "
         fill="none"
         stroke="rgb(0, 0, 0)"
         stroke-linecap="butt"
         stroke-linejoin="round"
         stroke-opacity="1.0"
         stroke-width="3.0"
         id="path116" />
      <path
         d=" M 285.988, 461.566 284.913, 461.287 283.686, 462.619 282.395, 464.024 276.494, 470.506 270.788, 476.840 270.033, 477.690 270.206, 479.303 271.269, 489.246 271.751, 493.761 272.858, 503.700 273.716, 511.396 274.866, 521.330 274.943, 521.997 274.956, 522.111 "
         fill="none"
         stroke="rgb(0, 0, 0)"
         stroke-linecap="butt"
         stroke-linejoin="round"
         stroke-opacity="1.0"
         stroke-width="3.0"
         id="path118" />
      <path
         d=" M 181.417, 426.922 183.991, 426.084 181.180, 425.397 181.417, 426.922 183.096, 428.986 186.888, 433.393 189.156, 435.891 190.886, 437.797 195.126, 442.233 195.320, 442.425 199.511, 446.581 200.953, 447.944 202.817, 449.707 204.135, 450.953 208.957, 455.311 210.913, 457.003 213.974, 459.651 218.560, 463.453 219.183, 463.969 220.694, 465.172 220.791, 465.907 222.153, 475.814 223.063, 482.434 223.924, 488.455 224.277, 490.922 224.505, 492.516 "
         fill="none"
         stroke="rgb(0, 0, 0)"
         stroke-linecap="butt"
         stroke-linejoin="round"
         stroke-opacity="1.0"
         stroke-width="3.0"
         id="path120" />
      <path
         d=" M 508.726, 520.434 508.505, 520.667 "
         fill="none"
         stroke="rgb(0, 0, 0)"
         stroke-linecap="butt"
         stroke-linejoin="round"
         stroke-opacity="1.0"
         stroke-width="3.0"
         id="path122" />
    </g>
  </g>
</svg>
