<?xml version="1.0" encoding="UTF-8" standalone="no"?>
<svg
   xmlns:dc="http://purl.org/dc/elements/1.1/"
   xmlns:cc="http://creativecommons.org/ns#"
   xmlns:rdf="http://www.w3.org/1999/02/22-rdf-syntax-ns#"
   xmlns:svg="http://www.w3.org/2000/svg"
   xmlns="http://www.w3.org/2000/svg"
   height="1024"
   width="1024"
   id="svg14"
   xml:space="preserve"
   enable-background="new 0 0 1000 1000"
   viewBox="0 0 1024 1024"
   y="0px"
   x="0px"
   version="1.1"><defs
     id="defs18" /><metadata
     id="metadata2"> Svg Vector Icons : http://www.onlinewebfonts.com/icon <rdf:RDF><cc:Work
     rdf:about=""><dc:format>image/svg+xml</dc:format><dc:type
       rdf:resource="http://purl.org/dc/dcmitype/StillImage" /><dc:title></dc:title></cc:Work></rdf:RDF></metadata><g
     transform="translate(11.996946,12.006949)"
     style="fill:#4f5b6f;fill-opacity:1;stroke:#000000;stroke-width:5;stroke-miterlimit:4;stroke-dasharray:none;stroke-opacity:1"
     id="g12"><g
       style="fill:#4f5b6f;fill-opacity:1;stroke:#000000;stroke-width:50;stroke-miterlimit:4;stroke-dasharray:none;stroke-opacity:1"
       id="g10"
       transform="matrix(0.1,0,0,-0.1,0,511)"><path
         style="fill:#ffffff;fill-opacity:1;stroke:#000000;stroke-width:50;stroke-miterlimit:4;stroke-dasharray:none;stroke-opacity:1"
         id="path4"
         d="m 4607.4,4867.5 c -434.5,-503.7 -576.8,-878.7 -480.7,-1265.1 15.4,-63.4 119.2,-296.1 230.7,-519.1 111.5,-221.1 215.3,-455.7 230.7,-519.1 63.4,-251.9 21.2,-551.8 -117.3,-824.8 -36.5,-73.1 -63.4,-134.6 -59.6,-138.4 13.5,-13.4 271.1,299.9 353.8,428.8 44.2,69.2 100,175 123,234.6 51.9,128.8 69.2,351.9 38.5,478.8 -11.5,50 -107.7,263.4 -215.3,474.9 -226.9,455.7 -257.6,563.3 -242.3,874.8 11.5,240.3 73.1,465.3 198,728.7 46.1,100 80.7,184.6 76.9,188.4 -3.7,3.7 -65.2,-59.8 -136.4,-142.5 z" /><path
         style="fill:#ffffff;fill-opacity:1;stroke:#000000;stroke-width:50;stroke-miterlimit:4;stroke-dasharray:none;stroke-opacity:1"
         id="path6"
         d="m 3428.8,3819.7 c -217.3,-323 -301.9,-551.8 -288.4,-792.1 9.6,-198 50,-286.5 290.3,-640.3 228.8,-338.4 273,-461.4 257.6,-715.2 -5.8,-92.3 -26.9,-215.4 -50,-278.8 -23.1,-63.5 -36.5,-117.3 -32.7,-121.1 13.5,-13.5 184.6,257.6 248,392.2 53.8,117.3 61.5,148 61.5,313.4 0,217.3 -21.2,269.2 -225,553.7 -226.9,319.2 -284.6,474.9 -284.6,774.8 0,182.7 40.4,394.2 105.7,563.3 17.3,40.4 26.9,78.8 21.2,82.7 -3.6,5.8 -51.6,-53.8 -103.6,-132.6 z" /><path
         style="fill:#ffffff;fill-opacity:1;stroke:#000000;stroke-width:50;stroke-miterlimit:4;stroke-dasharray:none;stroke-opacity:1"
         id="path8"
         d="m 1794.6,818.4 -42.3,-44.2 v -2741.7 -2743.6 l 50,-38.5 c 51.9,-40.4 55.8,-40.4 2239.9,-40.4 h 2188 l 50,44.2 50,42.3 1.9,559.5 v 561.4 l 330.7,9.6 c 261.5,7.7 357.6,17.3 473,50 457.6,134.6 790.2,455.7 963.3,926.7 107.7,296.1 134.6,453.7 146.1,874.8 11.5,442.2 -13.5,667.1 -111.5,957.5 -82.7,246.1 -175,403.8 -334.6,563.3 -161.5,161.5 -338.4,257.6 -567.2,305.7 -169.2,36.5 -546,25 -749.8,-21.1 -69.2,-15.4 -130.7,-26.9 -138.4,-28.8 -5.8,0 -11.5,109.6 -11.5,246.1 -1.9,482.6 0,480.7 -42.3,523 -38.4,38.4 -63.4,38.4 -2245.7,38.4 H 1835 Z M 7274.2,-469.8 c 180.7,-88.4 288.4,-240.3 369.2,-521 71.1,-242.3 98,-567.2 71.1,-861.4 -63.4,-682.5 -294.2,-1040.2 -757.5,-1163.2 -121.1,-32.7 -559.5,-46.1 -603.7,-19.2 -15.4,9.6 -21.1,392.2 -21.1,1272.8 v 1259.3 l 78.8,21.2 c 225,59.6 324.9,73.1 532.6,69.2 197.9,-3.8 232.5,-9.6 330.6,-57.7 z" /></g></g><flowRoot
     transform="translate(-172.72695,31.493033)"
     style="font-style:normal;font-variant:normal;font-weight:normal;font-stretch:normal;font-size:40px;line-height:1.25;font-family:Roboto;-inkscape-font-specification:'Roboto, Normal';font-variant-ligatures:normal;font-variant-caps:normal;font-variant-numeric:normal;font-feature-settings:normal;text-align:start;letter-spacing:0px;word-spacing:0px;writing-mode:lr-tb;text-anchor:start;fill:#000000;fill-opacity:1;stroke:none"
     id="flowRoot4499"
     xml:space="preserve"><flowRegion
       style="font-style:normal;font-variant:normal;font-weight:normal;font-stretch:normal;font-size:40px;font-family:Roboto;-inkscape-font-specification:'Roboto, Normal';font-variant-ligatures:normal;font-variant-caps:normal;font-variant-numeric:normal;font-feature-settings:normal;text-align:start;writing-mode:lr-tb;text-anchor:start"
       id="flowRegion4501"><rect
         style="font-style:normal;font-variant:normal;font-weight:normal;font-stretch:normal;font-size:40px;font-family:Roboto;-inkscape-font-specification:'Roboto, Normal';font-variant-ligatures:normal;font-variant-caps:normal;font-variant-numeric:normal;font-feature-settings:normal;text-align:start;writing-mode:lr-tb;text-anchor:start"
         y="615.94836"
         x="239.46747"
         height="187.50755"
         width="300.4639"
         id="rect4503" /></flowRegion><flowPara
       style="font-style:normal;font-variant:normal;font-weight:normal;font-stretch:normal;font-size:160px;font-family:Roboto;-inkscape-font-specification:'Roboto, Normal';font-variant-ligatures:normal;font-variant-caps:normal;font-variant-numeric:normal;font-feature-settings:normal;text-align:start;writing-mode:lr-tb;text-anchor:start"
       id="flowPara4505">&lt;KC/&gt;</flowPara></flowRoot><text
     id="text4509"
     y="699.37585"
     x="217.99232"
     style="font-style:normal;font-variant:normal;font-weight:normal;font-stretch:normal;font-size:146.86053467px;line-height:1.25;font-family:Roboto;-inkscape-font-specification:'Roboto, Normal';font-variant-ligatures:normal;font-variant-caps:normal;font-variant-numeric:normal;font-feature-settings:normal;text-align:start;letter-spacing:0px;word-spacing:0px;writing-mode:lr-tb;text-anchor:start;fill:#000000;fill-opacity:1;stroke:#000000;stroke-width:2;stroke-opacity:1;stroke-miterlimit:4;stroke-dasharray:none;"
     xml:space="preserve"><tspan
       style="stroke-width:2;stroke:#000000;stroke-opacity:1;fill:#000000;fill-opacity:1;stroke-miterlimit:4;stroke-dasharray:none;"
       y="699.37585"
       x="217.99232"
       id="tspan4507">&lt;KC/&gt;</tspan></text>
</svg>